Beverly Hills Chihuahua 2 (2011)(DivX)(DD5.1)(Audio Dutch) TBS  

*****RELEASE 8 februari op video*****





Verenigde Staten
Komedie

geregisseerd door Alex Zamm
met de stem van Odette Yustman, George Lopez en Christine Lakin

De schattige Chihuahua?s, Chloe en Papi zijn terug en klaar om samen aan hun nieuwe leven te beginnen. Met hun gezin van vijf pups genieten ze van het leven 
in het huis van tante Vivian die met haar nichtje, Rachel, op vakantie is. Rachel?s vriend Sam Cortez past op het huis wanneer hij erachter komt dat zijn eigen huis van hem en zijn familie wordt ontnomen. Chloe en Papi weten dat ze actie moeten ondernemen. Met de hulp van hun pups en hun vriend de Duitse Herder zullen zij proberen om deze dag tot een goed einde te brengen!

Storyline:

The cute Chihuahua? S, Chloe and Papi are back and ready to work on their new lives begin. With their family of five puppies they enjoy living in the house 
of Aunt Vivian with her niece, Rachel, is on vacation. Rachel?'s Friend Sam Cortez looks after the house when he learns that his house from him and his family enjoyed. Chloe and Papi know they must act. With the help of their friend and their pups German Shepherd they will try to make this day a successful conclusion!

Info :

SOURCE..........: RETAIL DVD5
SIZE............: 895 MB
FORM............: AVI
VIDEO CODEC.....: XVID 
AUDIO...........: Nederlands
AUDIO CODE......: AC3
BITRATE.........: 384kbps
CHANNELS........: 5
SUBTITELS.......: Geen
Categorie.......: Beeld 
Formaat.........: DivX 
Bron............: Retail
Ondertitels.....: Geen
Thanks..........: Inge2222  
 



General

Format                           : DivX
Format/Info                      : Hack of AVI
File size                        : 896 MiB
Duration                         : 1h 20mn
Overall bit rate                 : 1 559 Kbps

Video
ID                               : 0
Format                           : MPEG-4 Visual
Format profile                   : Advanced Simple@L5
Format settings, BVOP            : Yes
Format settings, QPel            : No
Format settings, GMC             : No warppoints
Format settings, Matrix          : Default (H.263)
Muxing mode                      : Packed bitstream
Codec ID                         : DX50
Codec ID/Hint                    : DivX 5
Duration                         : 1h 20mn
Bit rate                         : 1 165 Kbps
Width                            : 720 pixels
Height                           : 400 pixels
Display aspect ratio             : 16:9
Frame rate                       : 25.000 fps
Color space                      : YUV
Chroma subsampling               : 4:2:0
Bit depth                        : 8 bits
Scan type                        : Progressive
Bits/(Pixel*Frame)               : 0.162
Stream size                      : 669 MiB (75%)
Title                            : Video 
Writing library                  : XviD 1.2.1 (UTC 2008-12-04)

Audio
ID                               : 1
Format                           : AC-3
Format/Info                      : Audio Coding 3
Mode extension                   : CM (complete main)
Codec ID                         : 2000
Duration                         : 1h 20mn
Bit rate mode                    : Constant
Bit rate                         : 384 Kbps
Channel(s)                       : 6 channels
Channel positions                : Front: L C R, Side: L R, LFE
Sampling rate                    : 48.0 KHz
Bit depth                        : 16 bits
Stream size                      : 221 MiB (25%)
Alignment                        : Split accross interleaves
Interleave, duration             : 40 ms (1.00 video frame)
Interleave, preload duration     : 500 ms
Title                            : Audio 
 
  
 
 
http://www.moviemeter.nl/film/72493   
http://www.imdb.com/title/tt1482393 


Black-Sam